#!OML:ASF F:\VICON\USERDATA\INSTALL\Justin_Nancy\Justin_Nancy.ASF
:FULLY-SPECIFIED
:DEGREES
111
root 1.30469 16.5404 11.4793 -9.10269 0.656149 3.26597
lowerback 12.447 -0.269666 -3.51054
upperback 0.548553 -0.794132 0.92698
thorax -6.35102 -0.272285 3.10407
lowerneck -19.794 -4.63351 -9.74699
upperneck 18.4883 -5.2262 7.62829
head 9.57568 -2.27972 3.52904
rclavicle -1.82136e-014 -4.77083e-015
rhumerus -36.3892 -1.48745 -87.575
rradius 58.3555
rwrist -1.31243
rhand -14.2505 14.3991
rfingers 7.12502
rthumb 11.8876 -15.2435
lclavicle -1.82136e-014 -4.77083e-015
lhumerus -32.3532 6.83873 85.8429
lradius 67.6475
lwrist 23.0239
lhand -22.4693 17.0739
lfingers 7.12502
lthumb 3.95555 47.0169
rfemur -29.6837 -4.82672 18.6476
rtibia 69.1316
rfoot -13.9367 -11.9235
rtoes -6.15579
lfemur -15.4896 -2.88445 -25.7434
ltibia 47.3406
lfoot -18.01 0.907445
ltoes -4.24162
112
root 1.29683 16.5958 11.6827 -8.69942 0.931943 3.67633
lowerback 12.1202 -0.373356 -3.95984
upperback 0.429623 -0.988317 0.865493
thorax -6.27286 -0.355186 3.32224
lowerneck -19.9636 -4.58906 -9.64044
upperneck 18.5124 -5.13265 7.42139
head 9.59662 -2.24829 3.45068
rclavicle 1.93815e-015 6.36111e-015
rhumerus -36.6138 -1.9929 -87.0747
rradius 56.1894
rwrist -0.929286
rhand -14.3209 14.6291
rfingers 7.12502
rthumb 11.8197 -15.0173
lclavicle 1.93815e-015 6.36111e-015
lhumerus -31.5843 7.63529 85.919
lradius 66.7697
lwrist 23.0641
lhand -22.9939 17.7094
lfingers 7.12502
lthumb 3.44903 47.6612
rfemur -30.0786 -5.05344 18.2075
rtibia 66.0733
rfoot -13.8846 -12.089
rtoes -6.5586
lfemur -14.5853 -3.18405 -26.2698
ltibia 46.4038
lfoot -18.2336 0.926532
ltoes -3.98776
113
root 1.28399 16.658 11.89 -8.35005 0.835472 3.83833
lowerback 11.8523 -0.389128 -4.16117
upperback 0.307699 -1.03003 0.832112
thorax -6.24582 -0.368904 3.40402
lowerneck -20.1683 -4.55418 -9.57579
upperneck 18.5765 -5.08943 7.43039
head 9.65027 -2.21858 3.44908
rclavicle 1.23992e-014 1.59028e-014
rhumerus -36.8722 -2.60318 -86.6866
rradius 54.1184
rwrist -0.383379
rhand -14.4859 14.2812
rfingers 7.12502
rthumb 11.6605 -15.3743
lclavicle 1.23992e-014 1.59028e-014
lhumerus -31.1165 8.08448 85.8477
lradius 66.1746
lwrist 23.2312
lhand -23.5519 18.2427
lfingers 7.12502
lthumb 2.91008 48.2026
rfemur -30.3544 -4.91401 18.1323
rtibia 62.828
rfoot -13.3988 -12.1617
rtoes -6.98306
lfemur -13.5449 -3.24139 -26.4379
ltibia 45.3482
lfoot -18.3783 1.16202
ltoes -3.47356
114
root 1.26883 16.7171 12.0999 -8.02963 0.889236 3.9234
lowerback 11.5668 -0.481604 -4.33261
upperback 0.175979 -1.16471 0.852011
thorax -6.20974 -0.428286 3.54
lowerneck -20.2309 -4.50187 -9.66317
upperneck 18.6682 -5.02538 7.58654
head 9.69456 -2.17674 3.52991
rclavicle -1.78906e-014 -5.56597e-015
rhumerus -37.1382 -3.31577 -86.1818
rradius 52.0798
rwrist 0.332154
rhand -14.5906 13.5529
rfingers 7.12502
rthumb 11.5595 -16.1083
lclavicle -1.78906e-014 -5.56597e-015
lhumerus -30.6459 8.60869 85.7963
lradius 65.4543
lwrist 23.1657
lhand -23.7761 18.9143
lfingers 7.12502
lthumb 2.69362 48.8771
rfemur -30.4669 -4.84128 18.0762
rtibia 59.4447
rfoot -12.9174 -12.0465
rtoes -7.17093
lfemur -12.412 -3.44442 -26.5389
ltibia 44.2336
lfoot -18.4841 1.39377
ltoes -3.22014
115
root 1.24963 16.7701 12.3112 -7.7615 1.10821 4.07198
lowerback 11.3097 -0.578553 -4.61331
upperback 0.0988509 -1.31706 0.903891
thorax -6.1259 -0.494877 3.77344
lowerneck -20.0601 -4.49113 -9.8522
upperneck 18.4119 -4.97223 7.6599
head 9.57588 -2.15996 3.59242
rclavicle -1.07592e-014 -4.77083e-015
rhumerus -37.1974 -4.2766 -85.477
rradius 49.8087
rwrist 1.00648
rhand -14.6793 13.5567
rfingers 7.12502
rthumb 11.474 -16.1093
lclavicle -1.07592e-014 -4.77083e-015
lhumerus -29.8789 9.01942 85.9241
lradius 64.417
lwrist 23.1024
lhand -23.9388 19.6296
lfingers 7.12502
lthumb 2.5365 49.5943
rfemur -30.338 -4.83211 17.8877
rtibia 55.9454
rfoot -12.355 -11.7306
rtoes -7.43396
lfemur -11.2455 -3.73425 -26.7213
ltibia 43.1364
lfoot -18.4676 1.50423
ltoes -3.53715
116
root 1.2282 16.8182 12.5187 -7.46165 1.07624 4.31152
lowerback 11.0404 -0.577132 -4.94535
upperback 0.0777192 -1.34636 0.885011
thorax -5.98743 -0.503532 3.93943
lowerneck -20.0384 -4.45109 -9.90209
upperneck 18.0437 -4.89227 7.69913
head 9.43778 -2.12057 3.62085
rclavicle -8.87077e-015 -7.15625e-015
rhumerus -37.1057 -5.37818 -84.8514
rradius 47.5891
rwrist 1.6023
rhand -14.8052 13.6053
rfingers 7.12502
rthumb 11.3527 -16.0675
lclavicle -8.87077e-015 -7.15625e-015
lhumerus -28.7655 9.15462 85.9962
lradius 63.0395
lwrist 23.1255
lhand -23.3247 19.2766
lfingers 7.12502
lthumb 3.12953 49.2334
rfemur -30.2029 -4.45113 17.6357
rtibia 52.3453
rfoot -11.5034 -11.3602
rtoes -8.34833
lfemur -10.1748 -3.73978 -26.9486
ltibia 42.0731
lfoot -18.4212 1.65602
ltoes -4.34865
117
root 1.20646 16.8727 12.7263 -7.17536 0.915829 4.33796
lowerback 10.5788 -0.596953 -5.0317
upperback 0.184249 -1.35665 0.886514
thorax -5.61174 -0.52005 3.97726
lowerneck -20.5571 -4.42711 -9.76718
upperneck 18.0932 -4.82582 7.59176
head 9.53492 -2.08142 3.56779
rclavicle -2.31087e-015 2.14687e-014
rhumerus -37.097 -6.27701 -84.3736
rradius 45.9261
rwrist 1.87562
rhand -14.9296 13.1638
rfingers 7.12502
rthumb 11.2327 -16.5155
lclavicle -2.31087e-015 2.14687e-014
lhumerus -27.7258 9.19014 85.9568
lradius 61.9498
lwrist 22.9581
lhand -23.709 19.2651
lfingers 7.12502
lthumb 2.75842 49.227
rfemur -29.9724 -3.87888 17.5778
rtibia 48.5964
rfoot -10.6894 -10.8971
rtoes -8.31932
lfemur -9.12627 -3.5621 -26.9135
ltibia 41.0615
lfoot -18.5073 1.82004
ltoes -5.39148
118
root 1.18265 16.9208 12.9319 -6.87249 1.04651 4.31174
lowerback 10.1895 -0.714907 -5.09907
upperback 0.222692 -1.49732 0.932525
thorax -5.33453 -0.596576 4.07274
lowerneck -21.1009 -4.43998 -9.80096
upperneck 18.246 -4.78269 7.57685
head 9.68234 -2.05496 3.5738
rclavicle -9.31803e-015 -5.56597e-015
rhumerus -37.2277 -7.18737 -83.7493
rradius 44.2691
rwrist 2.12495
rhand -15.158 13.3482
rfingers 7.12502
rthumb 11.0123 -16.343
lclavicle -9.31803e-015 -5.56597e-015
lhumerus -27.1021 8.92995 85.9833
lradius 61.3424
lwrist 22.8634
lhand -26.1317 21.3245
lfingers 7.12502
lthumb 0.41854 51.3038
rfemur -29.7135 -3.24123 17.4188
rtibia 44.8724
rfoot -10.6022 -10.6635
rtoes -6.41109
lfemur -8.08344 -3.68678 -26.8388
ltibia 40.0282
lfoot -18.433 1.83614
ltoes -5.80559
119
root 1.15916 16.9547 13.1397 -6.47062 1.43994 4.42368
lowerback 9.99307 -0.891588 -5.25073
upperback 0.00405547 -1.74669 0.897216
thorax -5.42513 -0.708567 4.15439
lowerneck -21.0503 -4.42132 -9.90844
upperneck 18.1066 -4.77574 7.81335
head 9.63284 -2.03291 3.67537
rclavicle 1.29955e-014 -1.27222e-014
rhumerus -37.6579 -8.07419 -83.0946
rradius 42.4908
rwrist 2.45971
rhand -15.4305 13.7806
rfingers 7.12502
rthumb 10.7495 -15.9244
lclavicle 1.29955e-014 -1.27222e-014
lhumerus -26.8349 8.25811 85.9083
lradius 60.7409
lwrist 22.8753
lhand -27.65 23.6992
lfingers 7.12502
lthumb -1.04787 53.6763
rfemur -29.5312 -2.53979 16.9068
rtibia 41.1742
rfoot -9.10361 -10.5663
rtoes -9.47073
lfemur -7.14508 -3.97376 -26.942
ltibia 38.9848
lfoot -18.25 1.76539
ltoes -6.34433
120
root 1.13478 17.0005 13.3491 -6.11569 1.81239 4.61223
lowerback 9.68424 -1.03707 -5.50746
upperback -0.094031 -1.95653 0.864523
thorax -5.32503 -0.806966 4.28528
lowerneck -21.0416 -4.40417 -9.86303
upperneck 17.9069 -4.75194 7.79479
head 9.55706 -2.01992 3.66157
rclavicle 3.2551e-015 -1.35174e-014
rhumerus -38.0831 -8.94073 -82.4268
rradius 41.0692
rwrist 2.70276
rhand -15.623 13.1381
rfingers 7.12502
rthumb 10.5639 -16.5764
lclavicle 3.2551e-015 -1.35174e-014
lhumerus -26.3094 7.43217 85.8625
lradius 60.0104
lwrist 22.9474
lhand -26.6899 23.3981
lfingers 7.12502
lthumb -0.12058 53.3779
rfemur -29.049 -1.81032 16.2932
rtibia 37.7147
rfoot -7.71506 -10.4248
rtoes -15.3636
lfemur -6.11947 -4.19067 -27.1215
ltibia 37.9174
lfoot -18.1049 1.68361
ltoes -6.29993
121
root 1.10802 17.029 13.5626 -6.01383 2.07915 4.94406
lowerback 9.3782 -1.10994 -5.94621
upperback 0.0686462 -2.08143 0.815257
thorax -4.95423 -0.874938 4.4828
lowerneck -21.3219 -4.4026 -9.81721
upperneck 17.756 -4.71168 7.72634
head 9.54703 -1.999 3.63176
rclavicle 6.63444e-015 -1.19271e-014
rhumerus -38.3553 -9.83625 -81.7586
rradius 39.9249
rwrist 2.95158
rhand -15.8036 12.4269
rfingers 7.12502
rthumb 10.3896 -17.2964
lclavicle 6.63444e-015 -1.19271e-014
lhumerus -25.5955 6.70764 85.9057
lradius 59.4924
lwrist 22.7627
lhand -25.7319 22.8566
lfingers 7.12502
lthumb 0.804646 52.8349
rfemur -28.434 -0.815011 15.4744
rtibia 34.4441
rfoot -10.9368 -11.1122
rtoes -4.32065
lfemur -4.84066 -4.26878 -27.4446
ltibia 36.918
lfoot -18.1531 1.56653
ltoes -5.97509
